<svg xmlns="http://www.w3.org/2000/svg" width="200" height="144" viewBox="0 0 200 144" fill="none">
  <g clip-path="url(#clip0_470_4)">
    <path d="M0.347473 138.727C0.825318 138.053 1.49865 137.793 1.99821 137.728C2.15025 137.706 2.32401 137.684 2.47606 137.684C3.08422 137.684 3.67067 137.858 4.12679 138.184C4.75668 138.64 4.86528 139.335 4.95216 139.965V139.987C4.95216 140.03 4.95216 140.073 4.97388 140.117V140.16L4.9956 140.247C5.01732 140.486 5.23453 141.572 5.99474 141.768C6.0599 141.789 6.14678 141.789 6.2771 141.768C7.81924 141.529 7.92784 140.182 7.90612 138.423V118.679C7.90612 117.354 7.68891 116.55 7.21107 116.094C6.95043 115.855 6.55946 115.725 6.03818 115.725H5.23453V114.248H15.8557V115.747H15.0304C14.5525 115.747 14.1398 115.877 13.8792 116.116C13.4231 116.55 13.1841 117.397 13.1841 118.701V134.774C13.1841 135.295 13.1841 135.86 13.1624 136.424C13.119 137.424 12.9887 138.575 12.4891 139.596C12.1198 140.378 11.49 141.116 10.6646 141.768C9.10073 143.027 7.16763 143.722 5.34313 143.722C4.01819 143.722 2.80186 143.353 1.73757 142.636C1.62897 142.571 1.47693 142.441 1.30316 142.289C0.456074 141.594 -0.543057 140.008 0.347473 138.727Z" fill="white"/>
    <path d="M50.7816 118.701V138.423C50.7816 139.726 51.0205 140.573 51.4767 140.986C51.759 141.246 52.1283 141.377 52.6495 141.377H53.4532V142.897H42.832V141.377H43.6356C44.1569 141.377 44.5262 141.268 44.8085 141.007C45.2647 140.595 45.5036 139.748 45.5036 138.423V119.504L35.2733 141.941H33.4706L33.2968 141.572L23.3272 121.437L23.3489 138.944V139.031C23.3924 140.508 24.1091 141.355 25.3038 141.355H26.1074V142.875H18.375V141.355H19.1787C20.3733 141.355 21.09 140.508 21.1335 139.031V139.009C21.1335 138.987 21.1335 138.966 21.1335 138.944V117.897C21.0466 116.007 20.2429 115.747 19.4176 115.747H18.6139V114.248H25.8902L26.064 114.617L35.9684 135.23L45.5253 114.248H53.4749V115.747H52.7147C52.1717 115.747 51.7807 115.877 51.4984 116.116C50.9988 116.55 50.7816 117.397 50.7816 118.701Z" fill="white"/>
    <path d="M59.0576 138.423V118.679C59.0576 117.354 58.8404 116.529 58.3625 116.094C58.0802 115.855 57.7109 115.725 57.1896 115.725H56.386V114.248H67.0072V115.747H66.1818C65.704 115.747 65.313 115.877 65.0306 116.116C64.5745 116.55 64.3356 117.397 64.3356 118.701V138.423C64.3356 139.726 64.5528 140.573 65.0306 141.007C65.2913 141.246 65.6822 141.377 66.1818 141.377H66.9855V142.897H56.3643V141.377H57.081C57.6675 141.377 58.0584 141.268 58.3408 141.007C58.8404 140.573 59.0576 139.726 59.0576 138.423Z" fill="white"/>
    <path d="M94.2223 135.078C94.2223 136.055 94.0051 136.989 93.549 137.988C92.5716 140.095 90.3344 141.377 89.0964 141.941C87.2719 142.767 85.1433 143.201 82.9495 143.201C81.6029 143.201 80.2997 143.049 79.0182 142.745C76.4335 142.115 74.218 141.181 74.1963 141.159C74.0442 141.094 73.8922 141.073 73.7184 141.073C73.3275 141.073 73.0668 141.225 72.8713 141.377H72.3718V134.252H72.6759C73.9139 138.184 75.847 140.638 78.5838 141.768C79.5177 142.159 80.5603 142.419 81.5812 142.506C81.9287 142.549 82.2979 142.549 82.6672 142.549C85.2084 142.549 88.423 141.702 89.8566 139.27C91.529 136.403 89.8566 133.644 87.4673 132.189C86.2076 131.407 84.8175 130.951 83.5794 130.56L82.1893 130.104C79.0616 129.061 75.4995 127.888 73.523 125.477C71.6985 123.262 71.8939 119.722 73.9356 117.419C74.609 116.681 75.4561 116.007 76.3466 115.53C78.019 114.617 80.1042 114.161 82.4934 114.161H82.5151C84.7958 114.161 87.2936 114.596 89.5091 115.399H89.5308C89.6394 115.421 89.9435 115.508 90.2693 115.508C90.6168 115.508 90.8557 115.421 91.0295 115.225H91.529V121.698H91.2249C90.8123 120.525 89.4439 118.071 88.2927 116.876C87.3805 115.942 86.0121 115.269 84.4048 114.987C83.6663 114.856 82.9713 114.791 82.3196 114.791C81.6029 114.791 80.9513 114.856 80.2779 115.008C78.1059 115.508 75.7819 117.245 75.7819 119.917C75.7819 123.892 80.821 125.521 82.9713 126.194L83.7315 126.433C86.7071 127.367 89.7914 128.323 92.072 130.386C93.4621 131.689 94.2223 133.297 94.2223 135.078Z" fill="#00AEEF"/>
    <path d="M135.773 114.509V114.791H135.621C133.992 114.791 132.884 115.66 132.102 117.593L123.935 142.854H122.784L116.854 125.456L109.839 142.876H108.731L99.6085 118.245C98.6528 115.812 97.6103 114.813 96.155 114.813H96.0898V114.531H105.929V114.813H105.755C105.039 114.813 104.452 115.03 104.105 115.508C103.518 116.268 103.475 117.55 103.996 119.092C104.039 119.222 110.034 135.122 110.881 137.359L111.033 137.75L116.463 124.327L114.443 118.332C113.488 115.834 112.445 114.77 110.925 114.77H110.881V114.487H120.721V114.77C120.482 114.77 120.069 114.791 119.721 114.878C119.461 114.943 119.244 115.095 119.026 115.313C118.853 115.486 118.722 115.704 118.614 115.943C118.375 116.486 118.353 117.094 118.57 117.832L124.913 137.12L125.26 136.012C125.347 135.751 126.086 133.449 127.041 130.517C127.953 127.715 129.039 124.37 129.843 121.894C130.538 119.787 131.016 118.288 131.038 118.245C131.494 116.833 131.494 115.986 131.059 115.421C130.668 114.943 130.017 114.77 128.887 114.77H128.562V114.487H135.773V114.509Z" fill="#00AEEF"/>
    <path d="M147.806 114.791C147.132 114.791 146.546 114.965 146.133 115.334C145.503 115.92 145.199 116.919 145.199 118.462V138.9C145.199 140.464 145.503 141.463 146.133 142.028C146.546 142.419 147.089 142.571 147.827 142.571H147.979V142.853H138.357V142.571H138.401C139.183 142.571 139.769 142.419 140.182 142.028C140.812 141.463 141.116 140.464 141.116 138.9V118.462C141.116 116.898 140.812 115.92 140.182 115.334C139.769 114.943 139.205 114.791 138.488 114.791H138.357V114.509H147.979V114.791H147.806Z" fill="#00AEEF"/>
    <path d="M173.762 135.078C173.762 136.055 173.545 136.989 173.089 137.988C172.112 140.095 169.874 141.377 168.636 141.941C166.812 142.767 164.683 143.201 162.49 143.201C161.143 143.201 159.84 143.049 158.558 142.745C155.974 142.115 153.758 141.181 153.736 141.159C153.584 141.094 153.432 141.073 153.258 141.073C152.868 141.073 152.607 141.225 152.411 141.377H151.912V134.252H152.216C153.454 138.184 155.387 140.638 158.124 141.768C159.058 142.159 160.1 142.419 161.121 142.506C161.469 142.549 161.838 142.549 162.207 142.549C164.748 142.549 167.963 141.702 169.397 139.27C171.069 136.403 169.397 133.644 167.007 132.189C165.748 131.407 164.358 130.951 163.119 130.56L161.729 130.104C158.602 129.061 155.04 127.888 153.063 125.477C151.238 123.262 151.434 119.722 153.476 117.419C154.149 116.681 154.996 116.007 155.887 115.53C157.559 114.617 159.644 114.161 162.033 114.161H162.055C164.336 114.161 166.834 114.596 169.049 115.399H169.071C169.179 115.421 169.483 115.508 169.809 115.508C170.157 115.508 170.396 115.421 170.57 115.225H171.069V121.698H170.765C170.352 120.525 168.984 118.071 167.833 116.876C166.921 115.942 165.552 115.269 163.945 114.987C163.206 114.856 162.511 114.791 161.86 114.791C161.143 114.791 160.491 114.856 159.818 115.008C157.646 115.508 155.322 117.245 155.322 119.917C155.322 123.892 160.361 125.521 162.511 126.194L163.272 126.433C166.247 127.367 169.331 128.323 171.612 130.386C173.024 131.689 173.762 133.297 173.762 135.078Z" fill="#00AEEF"/>
    <path d="M200 135.078C200 136.055 199.782 136.989 199.326 137.988C198.349 140.095 196.112 141.377 194.874 141.941C193.049 142.767 190.921 143.201 188.727 143.201C187.38 143.201 186.077 143.049 184.796 142.745C182.211 142.115 179.995 141.181 179.974 141.159C179.822 141.094 179.67 141.073 179.496 141.073C179.105 141.073 178.844 141.225 178.649 141.377H178.149V134.252H178.453C179.691 138.184 181.624 140.638 184.361 141.768C185.295 142.159 186.338 142.419 187.358 142.506C187.706 142.549 188.075 142.549 188.445 142.549C190.986 142.549 194.2 141.702 195.634 139.27C197.306 136.403 195.634 133.644 193.245 132.189C191.985 131.407 190.595 130.951 189.357 130.56L187.967 130.104C184.839 129.061 181.277 127.888 179.3 125.477C177.476 123.262 177.671 119.722 179.713 117.419C180.386 116.681 181.233 116.007 182.124 115.53C183.796 114.617 185.882 114.161 188.271 114.161H188.292C190.573 114.161 193.071 114.596 195.286 115.399H195.308C195.417 115.421 195.721 115.508 196.047 115.508C196.394 115.508 196.633 115.421 196.807 115.225H197.306V121.698H197.002C196.59 120.525 195.221 118.071 194.07 116.876C193.158 115.942 191.789 115.269 190.182 114.987C189.444 114.856 188.749 114.791 188.097 114.791C187.38 114.791 186.707 114.856 186.055 115.008C183.883 115.508 181.559 117.245 181.559 119.917C181.559 123.892 186.598 125.521 188.749 126.194L189.509 126.433C192.484 127.367 195.569 128.323 197.849 130.386C199.239 131.689 200 133.297 200 135.078Z" fill="#00AEEF"/>
    <path d="M130.538 46.7418V34.2527L118.44 41.2466V36.9895L128.844 30.9947L103.54 16.377V26.7158C98.3274 28.171 96.4812 31.3639 96.4812 31.3639V29.496H96.4594V16.377L70.6775 31.277L81.7114 37.6193V41.8548L69.4395 34.7523V46.3292H82.7974V52.9973H81.7114H69.4612V65.2692L81.7114 58.1884V62.4456L71.4377 68.3752L96.4812 82.8192V71.4812H103.562V82.8192L127.02 69.2657L118.462 64.3353V60.0781L130.56 67.072V53.3882H118.332V46.7201H130.538V46.7418ZM110.99 46.3509V53.0624H101.194L99.3482 62.2284H114.031V62.5107V68.2449H85.5124V62.2284H89.8999C89.8999 62.2284 89.8999 62.2284 89.9216 62.2067L90.8991 62.1849L92.615 53.0624H87.641V46.3509H93.8096L95.7644 39.4004C96.3508 36.6419 98.8052 33.5142 101.694 31.9286C104.105 30.6254 106.277 30.191 108.536 30.191C110.078 30.191 112.337 30.5385 114.357 31.2553L112.011 37.8583C111.989 37.8583 111.989 37.88 111.968 37.88C110.295 37.0329 108.927 37.2284 108.254 37.2284C106.082 37.2284 104.539 38.3796 104.105 40.5081L102.411 46.3509H110.99Z" fill="#00AEEF"/>
    <path d="M103.54 10.2953L134.187 27.9756L141.659 23.7184L103.54 1.71582V10.2953Z" fill="white"/>
    <path d="M65.6381 28.0842L96.4809 10.2736V1.69409L58.4053 23.675L65.6381 28.0842Z" fill="white"/>
    <path d="M132.406 72.2637L103.519 88.9448V97.5243L139.987 76.4774L132.406 72.2637Z" fill="white"/>
    <path d="M96.4592 88.9445L66.1161 71.4163L58.666 75.6952L96.4592 97.524V88.9445Z" fill="white"/>
    <path d="M100.239 21.2424V0L99.6089 0.304083V21.2424C98.9139 21.3944 98.3926 21.9809 98.3926 22.7194C98.3926 23.5665 99.0876 24.2398 99.913 24.2398C100.76 24.2398 101.433 23.5447 101.433 22.7194C101.455 21.9809 100.934 21.3944 100.239 21.2424Z" fill="white"/>
    <path d="M99.6087 81.8849V99.2176L100.239 99.5651V81.8849C100.934 81.7328 101.455 81.1464 101.455 80.4296C101.455 79.5825 100.76 78.9092 99.9345 78.9092C99.0874 78.9092 98.4141 79.6042 98.4141 80.4296C98.4141 81.1464 98.9353 81.7328 99.6087 81.8849Z" fill="white"/>
    <path d="M138.944 49.761H126.238C126.086 49.066 125.499 48.5447 124.761 48.5447C123.914 48.5447 123.24 49.2397 123.24 50.0651C123.24 50.9122 123.935 51.5855 124.761 51.5855C125.499 51.5855 126.086 51.0642 126.238 50.3692H138.944V49.761Z" fill="white"/>
    <path d="M60.708 49.3697H74.4135C74.5655 48.6746 75.152 48.1533 75.8905 48.1533C76.7375 48.1533 77.4109 48.8484 77.4109 49.6737C77.4109 50.5208 76.7158 51.1942 75.8905 51.1942C75.152 51.1942 74.5655 50.6729 74.4135 49.9778H60.708V49.3697Z" fill="white"/>
    <path d="M139.27 53.4102H135.816V69.9175L139.27 71.8072V53.4102Z" fill="white"/>
    <path d="M139.791 53.4102V72.1113L143.245 74.001V53.4102H139.791Z" fill="white"/>
    <path d="M139.791 29.3006V46.7419H143.245V27.4326L139.791 29.3006Z" fill="white"/>
    <path d="M139.27 29.583L135.816 31.4727V46.742H139.27V29.583Z" fill="white"/>
    <path d="M59.926 52.9971H56.7549V72.6104L59.926 70.7859V52.9971Z" fill="white"/>
    <path d="M60.4688 52.9971V70.4819L64.1829 68.3316V52.9971H60.4688Z" fill="white"/>
    <path d="M59.926 29.1267L56.7549 27.2588V46.3509H59.926V29.1267Z" fill="white"/>
    <path d="M60.4688 29.4521V46.3505H64.1829V31.6242L60.4688 29.4521Z" fill="white"/>
    <path d="M139.27 46.1992H138.684V50.3912H139.27V46.1992Z" fill="white"/>
    <path d="M61.0335 49.3701H60.4688V53.6056H61.0335V49.3701Z" fill="white"/>
  </g>
  <defs>
    <clipPath id="clip0_470_4">
      <rect width="200" height="143.723" fill="white"/>
    </clipPath>
  </defs>
</svg>