<svg width="32" height="32" viewBox="0 0 32 32" fill="none" xmlns="http://www.w3.org/2000/svg">
<path d="M29.665 0H2.35719C1.06741 0 0 1.06741 0 2.35719V29.6428C0 30.9548 1.06741 32 2.35719 32H29.6428C30.9548 32 32 30.9326 32 29.6428V2.35719C32.0222 1.06741 30.9548 0 29.665 0ZM9.53996 27.2856H4.73662V11.9861H9.53996V27.2856ZM7.13829 9.87352C5.60389 9.87352 4.35858 8.71716 4.35858 7.11605C4.35858 5.51494 5.60389 4.35858 7.13829 4.35858C8.67269 4.35858 9.918 5.53718 9.918 7.11605C9.918 8.69493 8.67269 9.87352 7.13829 9.87352ZM27.2856 27.2856H22.4823V18.9465C22.4823 16.4781 21.4371 15.722 20.0806 15.722C18.6574 15.722 17.2564 16.7894 17.2564 19.0132V27.3079H12.4309V12.0083H17.0563V14.1209H17.123C17.59 13.1647 19.2133 11.5636 21.704 11.5636C24.3947 11.5636 27.2856 13.1647 27.2856 17.8346V27.2856Z" fill="black"/>
</svg>
