<svg width="40" height="40" viewBox="0 0 40 40" fill="none" xmlns="http://www.w3.org/2000/svg">
<path d="M37.0813 0H2.94649C1.33426 0 0 1.33426 0 2.94649V37.0535C0 38.6935 1.33426 40 2.94649 40H37.0535C38.6935 40 40 38.6657 40 37.0535V2.94649C40.0278 1.33426 38.6935 0 37.0813 0ZM11.9249 34.107H5.92078V14.9826H11.9249V34.107ZM8.92286 12.3419C7.00486 12.3419 5.44823 10.8965 5.44823 8.89507C5.44823 6.89368 7.00486 5.44823 8.92286 5.44823C10.8409 5.44823 12.3975 6.92147 12.3975 8.89507C12.3975 10.8687 10.8409 12.3419 8.92286 12.3419ZM34.107 34.107H28.1028V23.6831C28.1028 20.5976 26.7964 19.6525 25.1008 19.6525C23.3218 19.6525 21.5705 20.9868 21.5705 23.7665V34.1348H15.5386V15.0104H21.3204V17.6511H21.4038C21.9875 16.4559 24.0167 14.4545 27.13 14.4545C30.4934 14.4545 34.107 16.4559 34.107 22.2933V34.107Z" fill="white"/>
</svg>
