<svg width="24" height="25" viewBox="0 0 24 25" fill="none" xmlns="http://www.w3.org/2000/svg">
<path d="M3.5 20.7229C3.1 20.7229 2.75 20.5729 2.45 20.2729C2.15 19.9729 2 19.6229 2 19.2229V6.2229C2 5.8229 2.15 5.4729 2.45 5.1729C2.75 4.8729 3.1 4.7229 3.5 4.7229H20.5C20.9 4.7229 21.25 4.8729 21.55 5.1729C21.85 5.4729 22 5.8229 22 6.2229V19.2229C22 19.6229 21.85 19.9729 21.55 20.2729C21.25 20.5729 20.9 20.7229 20.5 20.7229H3.5ZM12 13.1729L3.5 7.5979V19.2229H20.5V7.5979L12 13.1729ZM12 11.6729L20.4 6.2229H3.625L12 11.6729ZM3.5 7.5979V6.2229V19.2229V7.5979Z" fill="#00AEEF"/>
</svg>
