<svg width="43" height="30" viewBox="0 0 43 30" fill="none" xmlns="http://www.w3.org/2000/svg">
<path d="M41.6855 4.69355C41.2016 2.85484 39.75 1.40323 37.9113 0.895161C34.5968 0 21.2903 0 21.2903 0C21.2903 0 7.98387 0 4.64516 0.895161C2.80645 1.37903 1.37903 2.83065 0.870968 4.69355C0 8.03226 0 15 0 15C0 15 0 21.9677 0.895161 25.3064C1.37903 27.1452 2.83064 28.5968 4.66935 29.1048C7.98387 30 21.2903 30 21.2903 30C21.2903 30 34.5968 30 37.9355 29.1048C39.7742 28.621 41.2016 27.1694 41.7097 25.3064C42.5806 21.9677 42.5806 15 42.5806 15C42.5806 15 42.5806 8.03226 41.6855 4.69355Z" fill="black"/>
<path d="M16.9346 21.3395L28.0636 15.0008L16.9346 8.66211V21.3395Z" fill="white"/>
</svg>
