<svg width="54" height="38" viewBox="0 0 54 38" fill="none" xmlns="http://www.w3.org/2000/svg">
<path d="M52.8016 5.94516C52.1887 3.61613 50.35 1.77742 48.021 1.13387C43.8226 0 26.9677 0 26.9677 0C26.9677 0 10.1129 0 5.88387 1.13387C3.55484 1.74677 1.74677 3.58548 1.10323 5.94516C0 10.1742 0 19 0 19C0 19 0 27.8258 1.13387 32.0548C1.74677 34.3839 3.58548 36.2226 5.91452 36.8661C10.1129 38 26.9677 38 26.9677 38C26.9677 38 43.8226 38 48.0516 36.8661C50.3806 36.2532 52.1887 34.4145 52.8323 32.0548C53.9355 27.8258 53.9355 19 53.9355 19C53.9355 19 53.9355 10.1742 52.8016 5.94516Z" fill="white"/>
<path d="M21.4502 27.03L35.547 19.001L21.4502 10.9719V27.03Z" fill="black"/>
</svg>
